<svg width="27" height="30" viewBox="0 0 27 30" fill="none" xmlns="http://www.w3.org/2000/svg">
<path d="M24.9521 10.7312H24.2303V7.25423C24.2303 7.23603 24.2257 7.20866 24.2248 7.19045C24.2246 7.05034 24.1746 6.91494 24.0838 6.80824L18.2849 0.200216H18.2803C18.248 0.160001 18.2085 0.12619 18.1638 0.100219L18.1247 0.0728867C18.0877 0.0533556 18.0486 0.0380434 18.0082 0.0273325C17.9964 0.0273325 17.9882 0.0182217 17.9764 0.0182217C17.9319 0.00745746 17.8864 0.00133874 17.8407 5.18697e-10H3.5907C3.27845 -9.23772e-06 2.97887 0.123385 2.75723 0.343323C2.53558 0.563262 2.40986 0.861949 2.40746 1.17419V10.7312H1.68567C1.23892 10.7312 0.810421 10.9086 0.494347 11.2243C0.178272 11.5401 0.000482457 11.9682 0 12.415V21.162C0.000476703 21.3828 0.044479 21.6012 0.129496 21.8049C0.214512 22.0086 0.338852 22.1936 0.49543 22.3491C0.652008 22.5047 0.837733 22.6279 1.04197 22.7115C1.24621 22.7952 1.46496 22.8378 1.68567 22.8369H2.40746V28.8258C2.40986 29.138 2.53558 29.4367 2.75723 29.6567C2.97887 29.8766 3.27845 30 3.5907 30H23.0498C23.362 30 23.6616 29.8766 23.8833 29.6567C24.1049 29.4367 24.2306 29.138 24.233 28.8258V22.846H24.9548C25.4016 22.846 25.8301 22.6686 26.1461 22.3529C26.4622 22.0372 26.64 21.6088 26.6405 21.162V12.415C26.64 11.9682 26.4622 11.5401 26.1461 11.2243C25.8301 10.9086 25.4016 10.7312 24.9548 10.7312H24.9521ZM3.5907 1.17419H17.2509V7.19956C17.2526 7.3548 17.3155 7.50313 17.426 7.61222C17.5364 7.72131 17.6855 7.78246 17.8407 7.78221H23.0498V10.7312H3.5907V1.17419ZM23.0498 28.5074H3.5907V22.846H23.0498V28.5074Z" fill="#007CC3"/>
<path d="M6.90576 17.603H4.87012V16.5342H6.90576C7.26025 16.5342 7.54671 16.4769 7.76514 16.3623C7.98356 16.2477 8.1429 16.0902 8.24316 15.8896C8.34701 15.6855 8.39893 15.4528 8.39893 15.1914C8.39893 14.9443 8.34701 14.7134 8.24316 14.4985C8.1429 14.2801 7.98356 14.1047 7.76514 13.9722C7.54671 13.8397 7.26025 13.7734 6.90576 13.7734H5.28369V20.5195H3.93555V12.6992H6.90576C7.5109 12.6992 8.02474 12.8066 8.44727 13.0215C8.87337 13.2327 9.19743 13.5264 9.41943 13.9023C9.64144 14.2747 9.75244 14.7008 9.75244 15.1807C9.75244 15.6855 9.64144 16.1188 9.41943 16.4805C9.19743 16.8421 8.87337 17.1196 8.44727 17.313C8.02474 17.5063 7.5109 17.603 6.90576 17.603ZM13.2329 20.5195H11.5625L11.5732 19.4507H13.2329C13.7163 19.4507 14.1209 19.3451 14.4468 19.1338C14.7762 18.9225 15.0233 18.62 15.188 18.2261C15.3563 17.8322 15.4404 17.3631 15.4404 16.8188V16.3945C15.4404 15.972 15.3921 15.5978 15.2954 15.272C15.2023 14.9461 15.0627 14.6722 14.8765 14.4502C14.6938 14.2282 14.4683 14.0599 14.1997 13.9453C13.9347 13.8307 13.6286 13.7734 13.2812 13.7734H11.5303V12.6992H13.2812C13.8005 12.6992 14.2749 12.7869 14.7046 12.9624C15.1343 13.1343 15.5049 13.3831 15.8164 13.709C16.1315 14.0348 16.3732 14.4251 16.5415 14.8799C16.7098 15.3346 16.7939 15.8431 16.7939 16.4053V16.8188C16.7939 17.381 16.7098 17.8895 16.5415 18.3442C16.3732 18.799 16.1315 19.1893 15.8164 19.5151C15.5013 19.8374 15.1253 20.0863 14.6885 20.2617C14.2552 20.4336 13.77 20.5195 13.2329 20.5195ZM12.3091 12.6992V20.5195H10.9609V12.6992H12.3091ZM19.4956 12.6992V20.5195H18.1475V12.6992H19.4956ZM22.686 16.1206V17.1895H19.1519V16.1206H22.686ZM23.1318 12.6992V13.7734H19.1519V12.6992H23.1318Z" fill="white"/>
</svg>
