<svg width="27" height="30" viewBox="0 0 27 30" fill="none" xmlns="http://www.w3.org/2000/svg">
<path d="M24.9521 10.7312H24.2303V7.25423C24.2303 7.23603 24.2257 7.20866 24.2248 7.19045C24.2246 7.05034 24.1746 6.91494 24.0838 6.80824L18.2849 0.200216H18.2803C18.248 0.160001 18.2085 0.12619 18.1638 0.100219L18.1247 0.0728867C18.0877 0.0533556 18.0486 0.0380434 18.0082 0.0273325C17.9964 0.0273325 17.9882 0.0182217 17.9764 0.0182217C17.9319 0.00745746 17.8864 0.00133874 17.8407 5.18697e-10H3.5907C3.27845 -9.23772e-06 2.97887 0.123385 2.75723 0.343323C2.53558 0.563262 2.40986 0.861949 2.40746 1.17419V10.7312H1.68567C1.23892 10.7312 0.810421 10.9086 0.494347 11.2243C0.178272 11.5401 0.000482457 11.9682 0 12.415V21.162C0.000476703 21.3828 0.044479 21.6012 0.129496 21.8049C0.214512 22.0086 0.338852 22.1936 0.49543 22.3491C0.652008 22.5047 0.837733 22.6279 1.04197 22.7115C1.24621 22.7952 1.46496 22.8378 1.68567 22.8369H2.40746V28.8258C2.40986 29.138 2.53558 29.4367 2.75723 29.6567C2.97887 29.8766 3.27845 30 3.5907 30H23.0498C23.362 30 23.6616 29.8766 23.8833 29.6567C24.1049 29.4367 24.2306 29.138 24.233 28.8258V22.846H24.9548C25.4016 22.846 25.8301 22.6686 26.1461 22.3529C26.4622 22.0372 26.64 21.6088 26.6405 21.162V12.415C26.64 11.9682 26.4622 11.5401 26.1461 11.2243C25.8301 10.9086 25.4016 10.7312 24.9548 10.7312H24.9521ZM3.5907 1.17419H17.2509V7.19956C17.2526 7.3548 17.3155 7.50313 17.426 7.61222C17.5364 7.72131 17.6855 7.78246 17.8407 7.78221H23.0498V10.7312H3.5907V1.17419ZM23.0498 28.5074H3.5907V22.846H23.0498V28.5074Z" fill="#14714B"/>
<path d="M7.15283 18.1724V12.6992H8.49561V18.1724C8.49561 18.6916 8.3846 19.1338 8.1626 19.499C7.94059 19.8643 7.63802 20.1436 7.25488 20.3369C6.87174 20.5303 6.43669 20.627 5.94971 20.627C5.45199 20.627 5.00977 20.5428 4.62305 20.3745C4.23991 20.2062 3.93913 19.9484 3.7207 19.6011C3.50228 19.2537 3.39307 18.8133 3.39307 18.2798H4.74658C4.74658 18.5877 4.79492 18.8366 4.8916 19.0264C4.99186 19.2126 5.13151 19.3486 5.31055 19.4346C5.49316 19.5169 5.70622 19.5581 5.94971 19.5581C6.18245 19.5581 6.38835 19.5062 6.56738 19.4023C6.75 19.2949 6.89323 19.1392 6.99707 18.9351C7.10091 18.7274 7.15283 18.4731 7.15283 18.1724ZM13.0181 17.603H10.9824V16.5342H13.0181C13.3726 16.5342 13.659 16.4769 13.8774 16.3623C14.0959 16.2477 14.2552 16.0902 14.3555 15.8896C14.4593 15.6855 14.5112 15.4528 14.5112 15.1914C14.5112 14.9443 14.4593 14.7134 14.3555 14.4985C14.2552 14.2801 14.0959 14.1047 13.8774 13.9722C13.659 13.8397 13.3726 13.7734 13.0181 13.7734H11.396V20.5195H10.0479V12.6992H13.0181C13.6232 12.6992 14.137 12.8066 14.5596 13.0215C14.9857 13.2327 15.3097 13.5264 15.5317 13.9023C15.7537 14.2747 15.8647 14.7008 15.8647 15.1807C15.8647 15.6855 15.7537 16.1188 15.5317 16.4805C15.3097 16.8421 14.9857 17.1196 14.5596 17.313C14.137 17.5063 13.6232 17.603 13.0181 17.603ZM23.0781 16.5234V19.5098C22.9671 19.6566 22.7935 19.8177 22.5571 19.9932C22.3244 20.165 22.0146 20.3136 21.6279 20.439C21.2412 20.5643 20.7596 20.627 20.1831 20.627C19.6925 20.627 19.2432 20.5446 18.835 20.3799C18.4268 20.2116 18.0741 19.9663 17.7769 19.644C17.4832 19.3218 17.2559 18.9297 17.0947 18.4678C16.9336 18.0023 16.853 17.4723 16.853 16.8779V16.3354C16.853 15.7446 16.9264 15.2183 17.0732 14.7563C17.2236 14.2909 17.4385 13.897 17.7178 13.5747C17.9971 13.2524 18.3337 13.009 18.7275 12.8442C19.125 12.6759 19.5744 12.5918 20.0757 12.5918C20.7166 12.5918 21.2466 12.6992 21.6655 12.9141C22.0881 13.1253 22.4139 13.4189 22.6431 13.7949C22.8722 14.1709 23.0173 14.6006 23.0781 15.084H21.7568C21.7139 14.8118 21.6297 14.5684 21.5044 14.3535C21.3826 14.1387 21.2072 13.9704 20.978 13.8486C20.7524 13.7233 20.4588 13.6606 20.0972 13.6606C19.7856 13.6606 19.5117 13.7197 19.2754 13.8379C19.0391 13.9561 18.8421 14.1297 18.6846 14.3589C18.5306 14.5881 18.4142 14.8674 18.3354 15.1968C18.2567 15.5262 18.2173 15.9022 18.2173 16.3247V16.8779C18.2173 17.3076 18.262 17.689 18.3516 18.022C18.4447 18.355 18.5771 18.6361 18.749 18.8652C18.9245 19.0944 19.1375 19.2681 19.3882 19.3862C19.6388 19.5008 19.9217 19.5581 20.2368 19.5581C20.5448 19.5581 20.7972 19.533 20.9941 19.4829C21.1911 19.4292 21.3468 19.3665 21.4614 19.2949C21.5796 19.2197 21.6709 19.1481 21.7354 19.0801V17.5278H20.1079V16.5234H23.0781Z" fill="white"/>
</svg>
